HIERARCHY
ROOT RootJoint
{
    OFFSET   0.000000   0.000000   0.000000
    CHANNELS 6 Xposition Yposition Zposition Xrotation Yrotation Zrotation
    JOINT pelvis_lowerback
    {
        OFFSET   0.000000   0.093605   0.000000
        CHANNELS 3 Xrotation Yrotation Zrotation
        JOINT lowerback_torso
        {
            OFFSET   0.000000   0.100000   0.000000
            CHANNELS 3 Xrotation Yrotation Zrotation
            JOINT torso_head
            {
                OFFSET   0.000000   0.282350   0.000000
                CHANNELS 3 Xrotation Yrotation Zrotation
                End Site
                {
                    OFFSET   0.000000   0.192650   0.000000
                }
            }
            JOINT rTorso_Clavicle
            {
                OFFSET  -0.001000   0.157500   0.000000
                CHANNELS 3 Xrotation Yrotation Zrotation
                JOINT rShoulder
                {
                    OFFSET  -0.117647   0.000000   0.000000
                    CHANNELS 3 Xrotation Yrotation Zrotation
                    JOINT rElbow
                    {
                        OFFSET  -0.245000   0.000000   0.000000
                        CHANNELS 3 Xrotation Yrotation Zrotation
                        JOINT rWrist
                        {
                            OFFSET  -0.240000   0.000000   0.000000
                            CHANNELS 3 Xrotation Yrotation Zrotation
                            End Site
                            {
                                OFFSET  -0.116353  -0.002500   0.000000
                            }
                        }
                    }
                }
            }
            JOINT lTorso_Clavicle
            {
                OFFSET   0.001000   0.157500   0.000000
                CHANNELS 3 Xrotation Yrotation Zrotation
                JOINT lShoulder
                {
                    OFFSET   0.117647   0.000000   0.000000
                    CHANNELS 3 Xrotation Yrotation Zrotation
                    JOINT lElbow
                    {
                        OFFSET   0.245000   0.000000   0.000000
                        CHANNELS 3 Xrotation Yrotation Zrotation
                        JOINT lWrist
                        {
                            OFFSET   0.240000   0.000000   0.000000
                            CHANNELS 3 Xrotation Yrotation Zrotation
                            End Site
                            {
                                OFFSET   0.116353  -0.002500   0.000000
                            }
                        }
                    }
                }
            }
        }
    }
    JOINT rHip
    {
        OFFSET  -0.100000  -0.051395   0.000000
        CHANNELS 3 Xrotation Yrotation Zrotation
        JOINT rKnee
        {
            OFFSET   0.000000  -0.410000   0.000000
            CHANNELS 3 Xrotation Yrotation Zrotation
            JOINT rAnkle
            {
                OFFSET   0.000000  -0.390000   0.000000
                CHANNELS 3 Xrotation Yrotation Zrotation
                JOINT rToeJoint
                {
                    OFFSET   0.000000  -0.050000   0.130000
                    CHANNELS 3 Xrotation Yrotation Zrotation
                    End Site
                    {
                        OFFSET  -0.010000   0.002000   0.060000
                    }
                }
            }
        }
    }
    JOINT lHip
    {
        OFFSET   0.100000  -0.051395   0.000000
        CHANNELS 3 Xrotation Yrotation Zrotation
        JOINT lKnee
        {
            OFFSET   0.000000  -0.410000   0.000000
            CHANNELS 3 Xrotation Yrotation Zrotation
            JOINT lAnkle
            {
                OFFSET   0.000000  -0.390000   0.000000
                CHANNELS 3 Xrotation Yrotation Zrotation
                JOINT lToeJoint
                {
                    OFFSET   0.000000  -0.050000   0.130000
                    CHANNELS 3 Xrotation Yrotation Zrotation
                    End Site
                    {
                        OFFSET   0.010000   0.002000   0.060000
                    }
                }
            }
        }
    }
}
MOTION
Frames: 14
Frame Time:   0.008333
 -1.973388   0.912500   5.448996  -1.908443 -41.422195   4.250988   5.180551  -6.607802  -3.263309  -5.742702  -6.392268   1.020226   0.587948   0.780294   0.688932   1.607240 -11.498043  -3.812628   3.462743 -10.602289  54.102220   0.053071  73.162018  -0.050647  -1.743090   1.035289 -14.041594  -1.801540  -3.850827   4.084799 -20.083733 -11.042885 -49.903770 -179.798671 -82.969403 -179.788783  -2.803759  -2.920032  15.471676 -18.374361   1.634849 -11.002019  69.961895  -0.005471  -0.002025  -1.224515  -4.900404   2.812121  -8.094112  -0.011037  -0.007675  -8.575887  -5.758888  -1.588700  17.425441  -0.000036   0.000177  -2.848712   0.825670   3.239934  -8.392166   0.000126   0.001912
 -1.975662   0.912860   5.450615  -1.757989 -41.716833   4.209878   5.320966  -6.902141  -3.278700  -5.768112  -6.596822   1.049907   0.498986   0.970368   0.634207   1.576717 -11.841874  -3.752453   3.292260 -11.199658  53.790980   0.050303  72.969947  -0.048038  -1.785617   1.065728 -14.056401  -1.900626  -4.161304   4.067793 -20.193329 -11.418062 -49.669362 -179.778676 -83.636608 -179.768643  -2.770749  -3.020666  15.465713 -19.082660   1.585585 -10.697209  69.865211  -0.004042  -0.001552  -1.392869  -4.980229   2.881539  -7.678320  -0.010735  -0.006795  -8.448981  -5.696343  -1.351513  17.455082  -0.000053   0.000093  -2.996369   0.791204   3.139596  -8.551163   0.000027   0.001848
 -1.977962   0.913197   5.452125  -1.626428 -42.033808   4.166043   5.466888  -7.181238  -3.298363  -5.782675  -6.789883   1.070275   0.417168   1.149633   0.584189   1.538106 -12.174195  -3.717467   3.117800 -11.768307  53.478823   0.047429  72.790512  -0.045262  -1.828881   1.100536 -14.158084  -1.988406  -4.447596   4.054530 -20.288778 -11.763659 -49.446527 -179.759107 -84.270982 -179.749047  -2.754415  -3.059812  15.457982 -19.779331   1.539812 -10.421898  69.722413  -0.002735  -0.001100  -1.551549  -5.054836   2.946453  -7.294219  -0.010342  -0.006120  -8.312048  -5.637604  -1.118141  17.491749  -0.000077   0.000005  -3.137043   0.758513   3.043718  -8.728074  -0.000045   0.001873
 -1.980314   0.913509   5.453530  -1.515760 -42.358293   4.118227   5.613306  -7.449757  -3.324250  -5.786899  -6.975166   1.078996   0.342572   1.316833   0.538101   1.500695 -12.490897  -3.698256   2.949664 -12.303587  53.175421   0.044394  72.623476  -0.042298  -1.869807   1.137335 -14.295538  -2.067284  -4.712673   4.041408 -20.373909 -12.084533 -49.238322 -179.740882 -84.865409 -179.730889  -2.744652  -3.075849  15.447800 -20.456602   1.499076 -10.171297  69.566690  -0.001658  -0.000697  -1.700580  -5.124639   3.006942  -6.943463  -0.009829  -0.005553  -8.165403  -5.583358  -0.889808  17.536932  -0.000106  -0.000086  -3.270410   0.728190   2.952942  -8.922609  -0.000092   0.001952
 -1.982730   0.913799   5.454832  -1.424087 -42.680347   4.065985   5.756463  -7.709333  -3.355883  -5.783765  -7.154618   1.077246   0.274301   1.472692   0.494912   1.466466 -12.792365  -3.688285   2.790384 -12.806460  52.884577   0.041286  72.467680  -0.039255  -1.908615   1.173868 -14.447276  -2.138293  -4.959732   4.026612 -20.450477 -12.383800 -49.045681 -179.723831 -85.420863 -179.713987  -2.737253  -3.084346  15.433745 -21.108929   1.462568  -9.941616  69.409654  -0.000814  -0.000356  -1.840167  -5.189961   3.063292  -6.623164  -0.009224  -0.005048  -8.010866  -5.532787  -0.665516  17.590116  -0.000141  -0.000174  -3.396055   0.700550   2.867399  -9.133427  -0.000114   0.002054
 -1.985218   0.914069   5.456033  -1.348423 -42.993568   4.009888   5.893594  -7.960361  -3.392375  -5.776162  -7.328990   1.066864   0.211434   1.617996   0.454164   1.435804 -13.079078  -3.683758   2.640621 -13.278434  52.607998   0.038174  72.322244  -0.036215  -1.945630   1.209108 -14.604749  -2.202228  -5.190909   4.009682 -20.519658 -12.663556 -48.868299 -179.707519 -85.939392 -179.697903  -2.730763  -3.090699  15.415171 -21.732966   1.429686  -9.730660  69.256145  -0.000179  -0.000080  -1.970745  -5.251087   3.115781  -6.330590  -0.008554  -0.004586  -7.850569  -5.485096  -0.444329  17.650082  -0.000179  -0.000255  -3.513750   0.675884   2.787174  -9.358767  -0.000116   0.002156
 -1.987828   0.913929   5.457207  -1.285778 -43.377206   3.899405   6.015923  -8.169462  -3.396222  -5.761197  -7.474476   1.065769   0.156070   1.754687   0.417228   1.403337 -13.342240  -3.713066   2.491933 -13.716586  52.334125   0.035051  72.192319  -0.033165  -1.977353   1.258488 -14.759928  -2.266027  -5.400680   4.011058 -20.586862 -12.924472 -48.698928 -179.691157 -86.419430 -179.681983  -2.724328  -3.099603  15.408273 -22.345527   1.400964  -9.489376  69.130420   0.000266   0.000162  -2.093152  -5.307982   3.164577  -6.068969  -0.007909  -0.004276  -7.636719  -5.502773  -0.132078  17.707244  -0.000242  -0.000370  -3.433612   0.613877   2.797057 -11.470332   0.001880   0.010039
 -1.990359   0.914111   5.458374  -1.199266 -43.801187   3.895550   6.127114  -8.364785  -3.439623  -5.782347  -7.601655   1.030767   0.128224   1.856173   0.344059   1.402980 -13.608044  -3.679895   2.206794 -14.213443  51.998007   0.031352  72.103024  -0.029662  -2.007994   1.277519 -14.851180  -2.298206  -5.531950   3.999355 -20.503232 -13.175403 -48.584334 -179.663460 -86.885085 -179.654404  -2.673857  -3.193072  15.410612 -22.970786   1.308531  -9.420951  68.838036   0.001374   0.001038  -2.093987  -5.406509   3.271730  -5.764911  -0.007879  -0.004668  -7.432912  -5.399845   0.067754  17.721598  -0.000213  -0.000331  -3.631270   0.605989   2.587368 -11.269368   0.001769   0.007540
 -1.992919   0.914406   5.459424  -1.128151 -44.240680   3.880322   6.242635  -8.542647  -3.469076  -5.788337  -7.711827   0.990220   0.102435   1.949051   0.275445   1.394621 -13.860871  -3.666987   1.927227 -14.681347  51.667831   0.027961  72.022588  -0.026431  -2.036737   1.309713 -14.998096  -2.300637  -5.636348   3.976921 -20.397886 -13.400255 -48.484922 -179.629404 -87.324414 -179.620471  -2.634211  -3.252137  15.374577 -23.582511   1.211710  -9.372168  68.512579   0.002388   0.001945  -2.095342  -5.498900   3.372437  -5.478084  -0.007762  -0.004966  -7.223676  -5.286267   0.268310  17.733243  -0.000186  -0.000294  -3.737111   0.612966   2.413237 -11.256251   0.001426   0.006000
 -1.995541   0.914737   5.460341  -1.076566 -44.674891   3.844321   6.361891  -8.709134  -3.490834  -5.778911  -7.812309   0.949362   0.079962   2.035389   0.213457   1.385354 -14.100386  -3.668700   1.660684 -15.119616  51.348327   0.024884  71.949064  -0.023485  -2.062502   1.348789 -15.165674  -2.291389  -5.726711   3.950890 -20.288259 -13.605845 -48.394682 -179.588043 -87.737272 -179.579307  -2.603550  -3.283604  15.320761 -24.174030   1.119843  -9.329531  68.193630   0.003106   0.002677  -2.097362  -5.584998   3.466682  -5.217192  -0.007477  -0.005083  -7.010124  -5.176094   0.478649  17.753421  -0.000176  -0.000285  -3.799725   0.625492   2.259880 -11.355845   0.001071   0.005042
 -1.998238   0.915071   5.461130  -1.041518 -45.090195   3.790893   6.480931  -8.868492  -3.509774  -5.759336  -7.908061   0.908011   0.060721   2.115800   0.156695   1.377166 -14.328151  -3.678957   1.409078 -15.530248  51.041992   0.022125  71.881065  -0.020836  -2.086115   1.389824 -15.340414  -2.277114  -5.808145   3.923988 -20.180455 -13.795955 -48.311754 -179.536544 -88.123947 -179.528089  -2.578004  -3.300456  15.258545 -24.741203   1.035343  -9.293834  67.891200   0.003523   0.003198  -2.099555  -5.665280   3.554780  -4.979881  -0.007055  -0.005042  -6.794757  -5.070797   0.697756  17.782362  -0.000182  -0.000294  -3.838428   0.641451   2.121887 -11.528865   0.000773   0.004431
 -2.001021   0.915393   5.461794  -1.019164 -45.478274   3.724277   6.596329  -9.022804  -3.528549  -5.734296  -8.001591   0.865833   0.044044   2.190714   0.104114   1.370684 -14.545197  -3.693747   1.172851 -15.915116  50.750315   0.019663  71.817760  -0.018472  -2.108277   1.430185 -15.517183  -2.260711  -5.883230   3.897156 -20.076966 -13.972856 -48.235357 -179.469006 -88.485351 -179.460907  -2.555207  -3.310742  15.191962 -25.281413   0.959222  -9.266643  67.607161   0.003691   0.003525  -2.101737  -5.740197   3.637071  -4.763737  -0.006537  -0.004882  -6.579906  -4.970211   0.924189  17.818456  -0.000197  -0.000311  -3.862941   0.660050   1.996396 -11.751007   0.000552   0.004010
 -2.003892   0.915692   5.462335  -1.006148 -45.834158   3.648058   6.705739  -9.172806  -3.548547  -5.707164  -8.093855   0.822829   0.029285   2.260515   0.055073   1.365979 -14.752061  -3.710544   0.951742 -16.275817  50.474017   0.017467  71.758654  -0.016366  -2.129368   1.468812 -15.693346  -2.243608  -5.953381   3.870782 -19.978833 -14.138063 -48.164970 -179.373320 -88.822717 -179.365638  -2.533887  -3.318816  15.123057 -25.793161   0.891824  -9.248947  67.341316   0.003668   0.003690  -2.103837  -5.810153   3.713891  -4.566662  -0.005962  -0.004635  -6.367491  -4.874013   1.156934  17.860063  -0.000217  -0.000325  -3.878670   0.680873   1.881621 -12.006153   0.000409   0.003680
 -2.006828   0.916096   5.463068  -0.988548 -46.229512   3.581710   6.761484  -9.305109  -3.506229  -5.665548  -8.167641   0.772163   0.056488   2.266741  -0.033151   1.391140 -14.966891  -3.722309   0.620139 -16.628574  50.134400   0.011196  71.849848  -0.010499  -2.171105   1.421501 -15.823742  -2.181452  -5.892859   3.848236 -19.688414 -14.271031 -48.188718 -179.299717 -89.051935 -179.292665  -2.485698  -3.397660  15.086085 -26.224823   0.749383  -9.336449  66.783546   0.004630   0.005500  -2.057203  -5.918044   3.790408  -4.363967  -0.005596  -0.004773  -6.106647  -4.690677   1.387683  17.827488  -0.000131  -0.000212  -3.817627   0.701429   1.693643 -12.348973   0.000059   0.003401
